# xmcd
#
# Track frame offsets:
#	150
#	15586
#	30395
#	44886
#
# Disc length: 853 seconds
#
# Revision: 2
# Processed by: cddbd v1.5.2PL0 Copyright (c) Steve Scherf et al.
# Submitted via: EasyCDDAExtractor 5.0.6
#
DISCID=2a035304
DTITLE=The Flood - australian for broken heart
DYEAR=2004
DGENRE=Country/Rock
TTITLE0=australian for broken heart
TTITLE1=so long
TTITLE2=andy
TTITLE3=billy
EXTD=YEAR: 2005
EXTT0=
EXTT1=
EXTT2=
EXTT3=
PLAYORDER=
